<svg width="1920" height="240" viewBox="0 0 1920 240" xmlns="http://www.w3.org/2000/svg"><rect width="1920" height="240" fill="#3c31dd"/><path d="M 0,240 C 0,240 0,48 0,48 C 33.54331928865609,43.86857123877849 67.08663857731219,39.737142477556986 128,44 C 188.9133614226878,48.262857522443014 277.19676497940736,60.920001328550555 356,65 C 434.80323502059264,69.07999867144945 504.126301505058,64.58285220824081 557,63 C 609.873698494942,61.417147791759184 646.2980290003607,62.74858983848621 705,61 C 763.7019709996393,59.25141016151379 844.6815824934997,54.42278843781434 912,50 C 979.3184175065003,45.57721156218566 1032.975641025641,41.560256410256414 1085,43 C 1137.024358974359,44.439743589743586 1187.4158534039366,51.336185921160016 1252,48 C 1316.5841465960634,44.663814078839984 1395.3609453586134,31.094999905103528 1453,33 C 1510.6390546413866,34.90500009489647 1547.1403651616088,52.283814458425866 1569,60 C 1590.8596348383912,67.71618554157413 1598.077593994951,65.76974226119303 1680,61 C 1761.922406005049,56.23025773880697 1918.5492588585855,48.637216496802 1971,46 C 2023.4507411414145,43.362783503198 1971.7253705707071,45.681391751599 1920,48 C 1920,48 1920,240 1920,240 Z" fill="#ff6f61" opacity="0.12"/><path d="M 0,240 C 0,240 0,96 0,96 C 59.20589496858926,103.82149784585017 118.41178993717853,111.64299569170035 182,106 C 245.58821006282147,100.35700430829965 313.5587352198752,81.24951507904876 355,81 C 396.4412647801248,80.75048492095124 411.3532691833209,99.35894399210461 470,101 C 528.6467308166791,102.64105600789539 631.0281880468409,87.3147089525328 712,82 C 792.9718119531591,76.6852910474672 852.5339786293152,81.38222019776423 907,89 C 961.4660213706848,96.61777980223577 1010.8358974358976,107.15641025641025 1068,111 C 1125.1641025641024,114.84358974358975 1190.1224316270948,111.99213877659476 1227,107 C 1263.8775683729052,102.00786122340524 1272.674376055723,94.8750346372108 1347,91 C 1421.325623944277,87.1249653627892 1561.1800641500124,86.50772267456206 1631,93 C 1700.8199358499876,99.49227732543794 1700.6053673442273,113.09407466454098 1733,109 C 1765.3946326557727,104.90592533545902 1830.398466473078,83.115978667274 1867,78 C 1903.601533526922,72.884021332726 1911.800766763461,84.44201066636299 1920,96 C 1920,96 1920,240 1920,240 Z" fill="#ff6f61" opacity="0.24"/><path d="M 0,240 C 0,240 0,144 0,144 C 28.80280134373399,147.7604044487464 57.60560268746798,151.52080889749283 118,149 C 178.39439731253202,146.47919110250717 270.3803905938621,137.67716885877508 338,141 C 405.6196094061379,144.32283114122492 448.87283493708367,159.77051566740687 487,157 C 525.1271650629163,154.22948433259313 558.1282696578032,133.2407684715975 640,128 C 721.8717303421968,122.7592315284025 852.6140864317031,133.2664104462032 933,140 C 1013.3859135682969,146.7335895537968 1043.4153846153845,149.69358974358974 1103,150 C 1162.5846153846155,150.30641025641026 1251.7243751067588,147.95923057943781 1280,145 C 1308.2756248932412,142.04076942056219 1275.6871149575811,138.46948793865894 1334,137 C 1392.3128850424189,135.53051206134106 1541.5271650629165,136.1628176659265 1600,141 C 1658.4728349370835,145.8371823340735 1626.2042247907532,154.87924139763516 1693,153 C 1759.7957752092468,151.12075860236484 1925.6559357740705,138.32021674353282 1980,135 C 2034.3440642259295,131.67978325646718 1977.1720321129646,137.8398916282336 1920,144 C 1920,144 1920,240 1920,240 Z" fill="#ff6f61" opacity="0.36"/><path d="M 0,240 C 0,240 0,192 0,192 C 61.503948642031546,193.73591356829698 123.00789728406309,195.47182713659396 180,193 C 236.9921027159369,190.52817286340604 289.4723595057792,183.84860502192112 338,180 C 386.5276404942208,176.15139497807888 431.1026646928202,175.13375277572166 493,182 C 554.8973353071798,188.86624722427834 634.1169817229402,203.61638387519218 708,201 C 781.8830182770598,198.38361612480782 850.4294084154188,178.40071172350966 915,177 C 979.5705915845812,175.59928827649034 1040.1653846153845,192.78076923076924 1070,202 C 1099.8346153846155,211.21923076923076 1098.909053123043,212.47621135341342 1159,205 C 1219.090946876957,197.52378864658658 1340.1984028924444,181.31438535557706 1415,176 C 1489.8015971075556,170.68561464442294 1518.29733530718,176.26624722427832 1547,179 C 1575.70266469282,181.73375277572168 1604.612255878836,181.62062574730967 1687,185 C 1769.387744121164,188.37937425269033 1905.2536411774754,195.25124978648296 1953,197 C 2000.7463588225246,198.74875021351704 1960.3731794112623,195.37437510675852 1920,192 C 1920,192 1920,240 1920,240 Z" fill="#ff6f61" opacity="0.48"/></svg>