<svg id="wave" style="transform:rotate(0deg); transition: 0.3s" viewBox="0 0 1440 290" version="1.1" xmlns="http://www.w3.org/2000/svg"><defs><linearGradient id="sw-gradient-0" x1="0" x2="0" y1="1" y2="0"><stop stop-color="rgba(11, 172, 255, 1)" offset="0%"></stop><stop stop-color="rgba(11, 172, 255, 1)" offset="100%"></stop></linearGradient></defs><path style="transform:translate(0, 0px); opacity:1" fill="url(#sw-gradient-0)" d="M0,87L60,116C120,145,240,203,360,203C480,203,600,145,720,135.3C840,126,960,164,1080,188.5C1200,213,1320,222,1440,188.5C1560,155,1680,77,1800,67.7C1920,58,2040,116,2160,149.8C2280,184,2400,193,2520,178.8C2640,164,2760,126,2880,96.7C3000,68,3120,48,3240,72.5C3360,97,3480,164,3600,198.2C3720,232,3840,232,3960,198.2C4080,164,4200,97,4320,77.3C4440,58,4560,87,4680,111.2C4800,135,4920,155,5040,178.8C5160,203,5280,232,5400,227.2C5520,222,5640,184,5760,164.3C5880,145,6000,145,6120,159.5C6240,174,6360,203,6480,212.7C6600,222,6720,213,6840,203C6960,193,7080,184,7200,188.5C7320,193,7440,213,7560,203C7680,193,7800,155,7920,130.5C8040,106,8160,97,8280,116C8400,135,8520,184,8580,207.8L8640,232L8640,290L8580,290C8520,290,8400,290,8280,290C8160,290,8040,290,7920,290C7800,290,7680,290,7560,290C7440,290,7320,290,7200,290C7080,290,6960,290,6840,290C6720,290,6600,290,6480,290C6360,290,6240,290,6120,290C6000,290,5880,290,5760,290C5640,290,5520,290,5400,290C5280,290,5160,290,5040,290C4920,290,4800,290,4680,290C4560,290,4440,290,4320,290C4200,290,4080,290,3960,290C3840,290,3720,290,3600,290C3480,290,3360,290,3240,290C3120,290,3000,290,2880,290C2760,290,2640,290,2520,290C2400,290,2280,290,2160,290C2040,290,1920,290,1800,290C1680,290,1560,290,1440,290C1320,290,1200,290,1080,290C960,290,840,290,720,290C600,290,480,290,360,290C240,290,120,290,60,290L0,290Z"></path><defs><linearGradient id="sw-gradient-1" x1="0" x2="0" y1="1" y2="0"><stop stop-color="rgba(11, 188, 255, 1)" offset="0%"></stop><stop stop-color="rgba(11, 255, 157, 1)" offset="100%"></stop></linearGradient></defs><path style="transform:translate(0, 50px); opacity:0.9" fill="url(#sw-gradient-1)" d="M0,116L60,116C120,116,240,116,360,130.5C480,145,600,174,720,174C840,174,960,145,1080,145C1200,145,1320,174,1440,188.5C1560,203,1680,203,1800,207.8C1920,213,2040,222,2160,203C2280,184,2400,135,2520,120.8C2640,106,2760,126,2880,140.2C3000,155,3120,164,3240,174C3360,184,3480,193,3600,193.3C3720,193,3840,184,3960,193.3C4080,203,4200,232,4320,212.7C4440,193,4560,126,4680,111.2C4800,97,4920,135,5040,164.3C5160,193,5280,213,5400,203C5520,193,5640,155,5760,135.3C5880,116,6000,116,6120,120.8C6240,126,6360,135,6480,125.7C6600,116,6720,87,6840,62.8C6960,39,7080,19,7200,33.8C7320,48,7440,97,7560,96.7C7680,97,7800,48,7920,48.3C8040,48,8160,97,8280,116C8400,135,8520,126,8580,120.8L8640,116L8640,290L8580,290C8520,290,8400,290,8280,290C8160,290,8040,290,7920,290C7800,290,7680,290,7560,290C7440,290,7320,290,7200,290C7080,290,6960,290,6840,290C6720,290,6600,290,6480,290C6360,290,6240,290,6120,290C6000,290,5880,290,5760,290C5640,290,5520,290,5400,290C5280,290,5160,290,5040,290C4920,290,4800,290,4680,290C4560,290,4440,290,4320,290C4200,290,4080,290,3960,290C3840,290,3720,290,3600,290C3480,290,3360,290,3240,290C3120,290,3000,290,2880,290C2760,290,2640,290,2520,290C2400,290,2280,290,2160,290C2040,290,1920,290,1800,290C1680,290,1560,290,1440,290C1320,290,1200,290,1080,290C960,290,840,290,720,290C600,290,480,290,360,290C240,290,120,290,60,290L0,290Z"></path><defs><linearGradient id="sw-gradient-2" x1="0" x2="0" y1="1" y2="0"><stop stop-color="rgba(255, 111, 97, 1)" offset="0%"></stop><stop stop-color="rgba(255, 212.956, 0, 1)" offset="100%"></stop></linearGradient></defs><path style="transform:translate(0, 100px); opacity:0.8" fill="url(#sw-gradient-2)" d="M0,116L60,106.3C120,97,240,77,360,91.8C480,106,600,155,720,159.5C840,164,960,126,1080,125.7C1200,126,1320,164,1440,183.7C1560,203,1680,203,1800,198.2C1920,193,2040,184,2160,183.7C2280,184,2400,193,2520,164.3C2640,135,2760,68,2880,67.7C3000,68,3120,135,3240,174C3360,213,3480,222,3600,198.2C3720,174,3840,116,3960,111.2C4080,106,4200,155,4320,174C4440,193,4560,184,4680,178.8C4800,174,4920,174,5040,149.8C5160,126,5280,77,5400,62.8C5520,48,5640,68,5760,96.7C5880,126,6000,164,6120,154.7C6240,145,6360,87,6480,91.8C6600,97,6720,164,6840,193.3C6960,222,7080,213,7200,203C7320,193,7440,184,7560,178.8C7680,174,7800,174,7920,174C8040,174,8160,174,8280,178.8C8400,184,8520,193,8580,198.2L8640,203L8640,290L8580,290C8520,290,8400,290,8280,290C8160,290,8040,290,7920,290C7800,290,7680,290,7560,290C7440,290,7320,290,7200,290C7080,290,6960,290,6840,290C6720,290,6600,290,6480,290C6360,290,6240,290,6120,290C6000,290,5880,290,5760,290C5640,290,5520,290,5400,290C5280,290,5160,290,5040,290C4920,290,4800,290,4680,290C4560,290,4440,290,4320,290C4200,290,4080,290,3960,290C3840,290,3720,290,3600,290C3480,290,3360,290,3240,290C3120,290,3000,290,2880,290C2760,290,2640,290,2520,290C2400,290,2280,290,2160,290C2040,290,1920,290,1800,290C1680,290,1560,290,1440,290C1320,290,1200,290,1080,290C960,290,840,290,720,290C600,290,480,290,360,290C240,290,120,290,60,290L0,290Z"></path></svg>