<svg id="visual" viewBox="0 0 900 600" width="900" height="600" xmlns="http://www.w3.org/2000/svg" xmlns:xlink="http://www.w3.org/1999/xlink" version="1.1"><rect x="0" y="0" width="900" height="600" fill="#3c31dd"></rect><path d="M0 483L21.5 489.2C43 495.3 86 507.7 128.8 503.3C171.7 499 214.3 478 257.2 465C300 452 343 447 385.8 449.8C428.7 452.7 471.3 463.3 514.2 471.8C557 480.3 600 486.7 642.8 494.8C685.7 503 728.3 513 771.2 510.8C814 508.7 857 494.3 878.5 487.2L900 480L900 601L878.5 601C857 601 814 601 771.2 601C728.3 601 685.7 601 642.8 601C600 601 557 601 514.2 601C471.3 601 428.7 601 385.8 601C343 601 300 601 257.2 601C214.3 601 171.7 601 128.8 601C86 601 43 601 21.5 601L0 601Z" fill="#009473"></path><path d="M0 498L21.5 494.8C43 491.7 86 485.3 128.8 483.7C171.7 482 214.3 485 257.2 491.7C300 498.3 343 508.7 385.8 514C428.7 519.3 471.3 519.7 514.2 515.5C557 511.3 600 502.7 642.8 495.5C685.7 488.3 728.3 482.7 771.2 486.5C814 490.3 857 503.7 878.5 510.3L900 517L900 601L878.5 601C857 601 814 601 771.2 601C728.3 601 685.7 601 642.8 601C600 601 557 601 514.2 601C471.3 601 428.7 601 385.8 601C343 601 300 601 257.2 601C214.3 601 171.7 601 128.8 601C86 601 43 601 21.5 601L0 601Z" fill="#5d974b"></path><path d="M0 558L21.5 552.8C43 547.7 86 537.3 128.8 532.2C171.7 527 214.3 527 257.2 530.8C300 534.7 343 542.3 385.8 542.2C428.7 542 471.3 534 514.2 534.3C557 534.7 600 543.3 642.8 540C685.7 536.7 728.3 521.3 771.2 522.5C814 523.7 857 541.3 878.5 550.2L900 559L900 601L878.5 601C857 601 814 601 771.2 601C728.3 601 685.7 601 642.8 601C600 601 557 601 514.2 601C471.3 601 428.7 601 385.8 601C343 601 300 601 257.2 601C214.3 601 171.7 601 128.8 601C86 601 43 601 21.5 601L0 601Z" fill="#98922b"></path><path d="M0 544L21.5 546.5C43 549 86 554 128.8 551.2C171.7 548.3 214.3 537.7 257.2 539C300 540.3 343 553.7 385.8 558.8C428.7 564 471.3 561 514.2 559.2C557 557.3 600 556.7 642.8 559C685.7 561.3 728.3 566.7 771.2 568.5C814 570.3 857 568.7 878.5 567.8L900 567L900 601L878.5 601C857 601 814 601 771.2 601C728.3 601 685.7 601 642.8 601C600 601 557 601 514.2 601C471.3 601 428.7 601 385.8 601C343 601 300 601 257.2 601C214.3 601 171.7 601 128.8 601C86 601 43 601 21.5 601L0 601Z" fill="#d18432"></path><path d="M0 564L21.5 565.7C43 567.3 86 570.7 128.8 573.3C171.7 576 214.3 578 257.2 579.5C300 581 343 582 385.8 582.2C428.7 582.3 471.3 581.7 514.2 576C557 570.3 600 559.7 642.8 560.2C685.7 560.7 728.3 572.3 771.2 578C814 583.7 857 583.3 878.5 583.2L900 583L900 601L878.5 601C857 601 814 601 771.2 601C728.3 601 685.7 601 642.8 601C600 601 557 601 514.2 601C471.3 601 428.7 601 385.8 601C343 601 300 601 257.2 601C214.3 601 171.7 601 128.8 601C86 601 43 601 21.5 601L0 601Z" fill="#ff6f61"></path></svg>